<?xml version="1.0" encoding="utf-8"?>
<svg version="1.1" id="Layer_1" xmlns="http://www.w3.org/2000/svg" xmlns:xlink="http://www.w3.org/1999/xlink" x="0px" y="0px"
	 viewBox="0 0 2443 2500" style="enable-background:new 0 0 2443 2500;" xml:space="preserve">
<style type="text/css">
	.st0{fill:#4285F4;}
	.st1{fill:#34A853;}
	.st2{fill:#FBBC05;}
	.st3{fill:#EB4335;}
</style>
<path class="st0" d="M2045.4,1264.9c0-70.8-5.6-122.5-17.8-176.1h-789.8v319.7h463.6c-9.3,79.5-59.8,199.1-172,279.5l-1.6,10.7
	l249.7,198.1l17.3,1.8C1953.7,1748.3,2045.4,1527.2,2045.4,1264.9"/>
<path class="st1" d="M1237.7,2107.3c227.1,0,417.8-76.6,557.1-208.7L1529.4,1688c-71,50.7-166.4,86.2-291.6,86.2
	c-222.5,0-411.3-150.3-478.6-358l-9.9,0.9l-259.7,205.8l-3.4,9.7C624.6,1913.9,908.7,2107.3,1237.7,2107.3"/>
<path class="st2" d="M759.2,1416.1c-17.8-53.6-28-111.1-28-170.4c0-59.4,10.3-116.8,27.1-170.4l-0.5-11.4L494.8,854.7l-8.6,4.2
	c-57,116.8-89.7,248-89.7,386.8s32.7,270,89.7,386.8L759.2,1416.1"/>
<path class="st3" d="M1237.7,717.3c158,0,264.5,69.9,325.3,128.3l237.4-237.4c-145.8-138.8-335.6-224-562.7-224
	c-329,0-613.2,193.4-751.5,474.8l272,216.4C826.5,867.6,1015.3,717.3,1237.7,717.3"/>
</svg>
